HIERARCHY
ROOT Hips
{
	OFFSET 0.000000 0.000000 0.000000 
	CHANNELS 6 Xposition Yposition Zposition Zrotation Yrotation Xrotation
	JOINT LeftUpLeg
	{
		OFFSET 1.363060 -1.794630 0.839290 
		CHANNELS 3 Zrotation Yrotation Xrotation
		JOINT LeftLeg
		{
			OFFSET 2.448110 -6.726130 0.000000 
			CHANNELS 3 Zrotation Yrotation Xrotation
			JOINT LeftFoot
			{
				OFFSET 2.562200 -7.039590 0.000000 
				CHANNELS 3 Zrotation Yrotation Xrotation
				JOINT LeftToeBase
				{
					OFFSET 0.157640 -0.433110 2.322550 
					CHANNELS 3 Zrotation Yrotation Xrotation
					End Site
					{
						OFFSET 0.000000 0.000000 0.000000 
					}
				}
			}
		}
	}
	JOINT RightUpLeg
	{
		OFFSET -1.305520 -1.794630 0.839290 
		CHANNELS 3 Zrotation Yrotation Xrotation
		JOINT RightLeg
		{
			OFFSET -2.542530 -6.985550 0.000000 
			CHANNELS 3 Zrotation Yrotation Xrotation
			JOINT RightFoot
			{
				OFFSET -2.568260 -7.056230 0.000000 
				CHANNELS 3 Zrotation Yrotation Xrotation
				JOINT RightToeBase
				{
					OFFSET -0.164730 -0.452590 2.363150 
					CHANNELS 3 Zrotation Yrotation Xrotation
					End Site
					{
						OFFSET 0.000000 0.000000 0.000000 
					}
				}
			}
		}
	}
	JOINT Spine
	{
		OFFSET 0.028270 2.035590 -0.193380 
		CHANNELS 3 Zrotation Yrotation Xrotation
		JOINT Spine1
		{
			OFFSET 0.056720 2.048850 -0.042750 
			CHANNELS 3 Zrotation Yrotation Xrotation
			JOINT Neck1
			{
				OFFSET -0.054170 1.746240 0.172020 
				CHANNELS 3 Zrotation Yrotation Xrotation
				JOINT Head
				{
					OFFSET 0.104070 1.761360 -0.123970 
					CHANNELS 3 Zrotation Yrotation Xrotation
					End Site
					{
						OFFSET 0.000000 0.000000 0.000000 
					}
				}
			}
			JOINT LeftArm
			{
				OFFSET 3.362410 1.200890 -0.311210 
				CHANNELS 3 Zrotation Yrotation Xrotation
				JOINT LeftForeArm
				{
					OFFSET 4.983000 -0.000000 -0.000000 
					CHANNELS 3 Zrotation Yrotation Xrotation
					JOINT LeftHand
					{
						OFFSET 3.483560 -0.000000 -0.000000 
						CHANNELS 3 Zrotation Yrotation Xrotation
						JOINT LeftHandIndex1
						{
							OFFSET 0.715260 -0.000000 -0.000000 
							CHANNELS 3 Zrotation Yrotation Xrotation
							End Site
							{
								OFFSET 0.000000 0.000000 0.000000 
							}
						}
					}
				}
			}
			JOINT RightArm
			{
				OFFSET -3.136600 1.374050 -0.404650 
				CHANNELS 3 Zrotation Yrotation Xrotation
				JOINT RightForeArm
				{
					OFFSET -5.241900 -0.000000 -0.000000 
					CHANNELS 3 Zrotation Yrotation Xrotation
					JOINT RightHand
					{
						OFFSET -3.444170 -0.000000 -0.000000 
						CHANNELS 3 Zrotation Yrotation Xrotation
						JOINT RightHandIndex1
						{
							OFFSET -0.622530 -0.000000 -0.000000 
							CHANNELS 3 Zrotation Yrotation Xrotation
							End Site
							{
								OFFSET 0.000000 0.000000 0.000000 
							}
						}
					}
				}
			}
		}
	}
}
MOTION
Frames: 7
Frame Time: 0.041667
3.287958 17.793072 -9.614478 -179.042385 20.732274 179.016438 -15.539755 -7.230513 -13.794406 1.847656 10.251070 31.158511 0.919896 -5.998142 -7.265833 0.733700 -5.472300 -15.260800 19.543327 3.937757 -11.117816 -2.488089 -9.656278 29.643674 -0.530573 1.430812 -5.452928 -0.279000 3.397400 -9.387100 1.391518 2.014715 1.757563 -1.592555 1.003189 -6.100266 6.676935 -8.868722 25.822945 4.257200 -3.860600 16.261100 -84.396012 2.690024 22.739695 17.879896 -24.989947 -4.693045 -1.061464 -1.982380 8.054498 -7.125000 0.000000 0.000000 79.408829 -0.799062 6.041043 -18.759836 27.215949 -4.637422 0.462497 -0.150124 2.882454 7.125000 0.000000 0.000000 
3.339072 17.779023 -9.653537 -179.229699 20.957455 179.066643 -16.321729 -6.481087 -14.388505 1.713268 10.056150 30.510395 0.936898 -6.321675 -7.084818 0.716100 -5.407700 -15.075200 19.452041 3.940084 -11.222533 -2.544171 -9.743940 29.938042 -0.566908 1.585047 -5.683007 -0.268000 3.329900 -9.198600 1.381810 1.971619 1.761601 -1.476129 0.990325 -5.985076 6.643587 -8.838366 25.908456 4.236200 -3.842900 16.336500 -84.362655 2.677717 22.968547 17.851448 -24.956572 -4.681841 -1.050770 -1.984836 7.786993 -7.125000 0.000000 0.000000 79.335574 -0.712909 6.095133 -18.763055 27.218993 -4.638276 0.465706 -0.144224 2.904902 7.125000 0.000000 0.000000 
3.391083 17.770156 -9.689107 -179.218520 21.140738 179.178325 -16.905750 -5.582785 -15.019611 1.580796 9.860334 29.856567 0.935497 -6.572689 -6.708449 0.779500 -5.637000 -15.734800 19.579819 4.013472 -11.258766 -2.594113 -9.817070 30.195441 -0.598831 1.728761 -5.867082 -0.237100 3.133700 -8.651200 1.422220 1.938382 1.803918 -1.373060 0.979968 -5.803913 6.547940 -8.743748 25.892132 4.186200 -3.811000 16.333400 -84.402895 2.548060 23.062927 17.838364 -24.937564 -4.674688 -1.073334 -1.971533 7.582791 -7.125000 0.000000 0.000000 79.256544 -0.649075 6.189606 -18.856541 27.336365 -4.683911 0.467935 -0.123777 2.863472 7.125000 0.000000 0.000000 
3.442496 17.765074 -9.721988 -179.088322 21.232236 179.270895 -17.368667 -4.686920 -15.616872 1.461973 9.672872 29.237668 0.941200 -7.021396 -6.149918 0.732700 -5.468900 -15.250800 19.837233 3.903181 -11.253442 -2.635497 -9.871386 30.398187 -0.652610 1.971826 -6.158564 -0.250800 3.222200 -8.897900 1.470431 1.943252 1.822421 -1.362166 0.982813 -5.719533 6.507615 -8.782252 25.985464 4.160000 -3.828200 16.437300 -84.432252 2.463207 23.187695 17.800719 -24.884567 -4.654829 -1.112391 -1.935115 7.579042 -7.125000 0.000000 0.000000 79.165106 -0.722958 6.190456 -18.890944 27.383970 -4.700810 0.469082 -0.125567 2.671772 7.125000 0.000000 0.000000 
3.490621 17.758996 -9.752577 -178.935730 21.332881 179.337868 -17.767933 -4.052277 -16.065839 1.351999 9.488725 28.645442 0.937171 -7.551669 -5.374951 0.536800 -4.694300 -13.038700 20.118526 3.766719 -11.213099 -2.667448 -9.910417 30.550471 -0.702331 2.181879 -6.467491 -0.290600 3.466500 -9.580400 1.521039 1.934431 1.839115 -1.358467 0.976347 -5.688094 6.678499 -8.856675 25.960519 4.242400 -3.849600 16.474100 -84.454581 2.428341 23.262329 17.770493 -24.840876 -4.639908 -1.116816 -1.917062 7.603090 -7.125000 0.000000 0.000000 79.073972 -0.756090 6.194379 -18.891724 27.388577 -4.701726 0.467820 -0.128889 2.584454 7.125000 0.000000 0.000000 
3.539046 17.750228 -9.782767 -178.855417 21.346994 179.432588 -18.171096 -3.734165 -16.417468 1.247172 9.314031 28.088468 0.935245 -7.941605 -4.854525 0.401400 -4.067700 -11.267200 20.320896 3.715206 -11.192144 -2.689550 -9.937902 30.658458 -0.726423 2.252719 -6.711397 -0.300300 3.523500 -9.739800 1.553167 1.842707 1.841447 -1.300086 0.931329 -5.648496 6.856390 -8.827891 25.770282 4.332200 -3.830500 16.340000 -84.422588 2.433373 23.377924 17.779065 -24.856118 -4.643870 -1.116921 -1.947269 7.479091 -7.125000 0.000000 0.000000 79.105016 -0.645220 5.921294 -18.824522 27.305881 -4.668658 0.464508 -0.132438 2.936420 7.125000 0.000000 0.000000 
3.588366 17.744648 -9.811563 -178.845751 21.204267 179.488430 -18.580823 -3.706489 -16.630070 1.147312 9.156999 27.586055 0.929638 -7.912082 -4.844901 0.417300 -4.146500 -11.489300 20.453119 3.627412 -11.151087 -2.703326 -9.955877 30.729140 -0.723016 2.183205 -6.868636 -0.279000 3.397100 -9.386400 1.582709 1.686727 1.819814 -1.173295 0.857861 -5.663445 6.817027 -8.763632 25.686551 4.308200 -3.806100 16.246400 -84.383389 2.481889 23.520007 17.789630 -24.876807 -4.650466 -1.123989 -1.964273 7.232786 -7.125000 0.000000 0.000000 79.122094 -0.646175 5.765321 -18.776051 27.243229 -4.643910 0.464141 -0.137049 3.283568 7.125000 0.000000 0.000000 
